<?xml version="1.0" standalone="no"?>
<!DOCTYPE svg PUBLIC "-//W3C//DTD SVG 20010904//EN"
 "http://www.w3.org/TR/2001/REC-SVG-20010904/DTD/svg10.dtd">
<svg version="1.0" xmlns="http://www.w3.org/2000/svg"
 width="700.000000pt" height="700.000000pt" viewBox="0 0 700.000000 700.000000"
 preserveAspectRatio="xMidYMid meet">
<metadata>
Created by potrace 1.14, written by Peter Selinger 2001-2017
</metadata>
<g transform="translate(0.000000,700.000000) scale(0.100000,-0.100000)"
fill="#000000" stroke="none">
<path d="M3215 6989 c-640 -58 -1233 -275 -1735 -632 -170 -121 -278 -214
-446 -381 -294 -295 -483 -554 -661 -911 -531 -1060 -487 -2327 115 -3342 251
-424 606 -806 1008 -1089 729 -511 1631 -723 2519 -593 615 90 1192 342 1685
738 119 95 348 318 450 436 467 544 746 1188 832 1920 16 145 17 588 0 730
-86 724 -352 1347 -803 1885 -122 145 -351 370 -494 484 -510 407 -1117 661
-1775 742 -149 19 -555 26 -695 13z m-413 -2529 c327 -426 597 -780 601 -786
4 -6 -78 -146 -182 -310 l-189 -299 -141 -3 -141 -3 0 -219 0 -220 -155 0
-155 0 0 -239 0 -239 -116 -184 c-64 -101 -120 -187 -125 -193 -5 -5 -9 702
-9 1740 0 978 4 1745 9 1740 4 -6 276 -359 603 -785z m2006 -1834 l-3 -876
-600 781 c-330 430 -603 787 -607 794 -5 8 67 130 183 314 l191 301 139 0 139
0 0 220 0 220 155 0 155 0 0 238 0 239 123 191 122 192 3 -869 c1 -478 1
-1263 0 -1745z"/>
</g>
</svg>
